<?xml version="1.0" encoding="UTF-8" standalone="no"?>
<!DOCTYPE svg PUBLIC "-//W3C//DTD SVG 1.1//EN" "http://www.w3.org/Graphics/SVG/1.1/DTD/svg11.dtd">
<svg width="100%" height="100%" viewBox="0 0 1024 1024" version="1.1" xmlns="http://www.w3.org/2000/svg" xmlns:xlink="http://www.w3.org/1999/xlink" xml:space="preserve" xmlns:serif="http://www.serif.com/" style="fill-rule:evenodd;clip-rule:evenodd;stroke-linejoin:round;stroke-miterlimit:2;">
    <g transform="matrix(1.88223,0,0,1.88223,-452.181,-176.873)">
        <path d="M524.51,107.67C544.51,109.14 564.32,116.16 581.35,126.65C596.78,136.06 610.35,148.37 620.87,163.1C637.94,186.58 646.77,216.03 646.05,245C646.05,271.67 646.09,298.34 646.04,325.01C661.61,342.55 673.51,363.5 681.45,385.54C692.18,415.6 694.25,448.77 687.96,480.02C681.91,509.64 667.68,537.22 648.26,560.27C623.14,590.44 588.31,612.22 549.98,620.93C519.09,627.72 486.09,626.17 456.15,615.81C425.51,605.93 398.45,586.83 377.58,562.46C353.76,535.04 337.73,500.29 334.06,464.03C331.01,435.15 334.61,405.25 345.18,378.14C352.31,359.25 363.42,341.83 376.43,326.46C377.28,325.36 378.18,324.54 378.12,323.04C378.03,295.7 378.07,268.25 378,241C377.68,209.86 389.08,178.97 409.29,155.32C421.17,140.74 436.82,129.01 453.53,120.53C465.73,114.6 479.01,110.02 492.49,108.26C502.92,107.08 514.07,106.27 524.51,107.67Z" style="fill:rgb(17,18,18);fill-rule:nonzero;"/>
        <path d="M500.01,147.39C516.05,145.48 532.44,147.48 547.41,153.6C567.54,161.87 584.35,177.21 594.68,196.34C602.68,210.76 606.55,227.54 606,244C605.97,260.8 606.06,277.61 605.94,294.42C595.58,287.04 584.33,281.89 572.5,277.35C542.27,266.3 508.55,264.43 476.99,270.11C455.89,274.4 434.71,282.21 416.92,294.51C417.37,277 416.96,259.48 417.12,241.97C417.76,222.94 423.24,203.81 434.18,188.09C439.11,181.03 444.79,173.98 451.51,168.55C465.16,157.06 482.33,149.66 500.01,147.39Z" style="fill:white;fill-rule:nonzero;"/>
        <path d="M525.03,309.06C544.28,310.68 562.85,316.85 579.6,326.4C605.31,341.4 625.71,365.45 636.92,392.97C647.63,418.46 650.07,447.6 643.57,474.48C641.78,482.05 638.65,489.49 635.68,496.67C633.92,500.72 632.09,504.77 628.23,507.23C619.03,513.01 609.51,518.1 599.02,521.12C582.44,526.38 565.31,527.88 548,526.91C535.08,525.39 522.52,522.93 510.69,517.32C491.86,509.02 476.48,493.52 468.5,474.53C464.53,464.48 462.28,453.84 462.8,443C462.91,429.85 467.6,416.29 476.35,406.38C484.99,395.98 498.54,389.88 511.99,389.58C518.53,389.59 524.76,389.82 530.97,392.03C540.69,395.22 549.34,401.73 554.17,410.85C557.56,416.94 559.09,424.08 559.09,431C559,439.92 555.24,448.64 547.71,453.75C538.45,460.65 524.51,460.24 516.66,451.35C514.17,448.94 512.47,443.96 508.84,443.38C503.66,441.91 497.68,444.8 495.92,449.95C493.72,454.47 495.51,460.24 497.41,464.57C501.67,473.16 509.57,480.03 518.43,483.59C527.89,487.63 538.91,488.29 548.98,486.68C564.55,484.27 578.72,474.29 587.1,461.06C593.2,451.67 596.16,440.13 596.36,429C596.44,413.74 592.07,398.48 582.74,386.28C571.87,372.03 556.63,360.61 539.28,355.65C532.63,353.62 525.91,352.94 519.04,352.14C506.29,351.38 493.25,353.68 481.39,358.38C458.2,368.44 439.19,387.74 430.71,411.71C423.84,431.09 423.74,452.36 428.57,472.23C433.7,492.58 444.7,511.63 459.7,526.29C470.2,535.99 481.35,544.71 494.51,550.52C522.09,563.29 554.12,566.02 583.8,560.32C578.1,563.99 572.05,566.96 566,569.98C545.76,579.22 523.06,582.03 501,580.86C485.53,579.4 470.37,575.44 456.37,568.65C439.42,561.03 424.61,549.53 412.36,535.61C400.63,522.82 391.71,507.82 385.3,491.73C373.44,460.54 373.67,425.07 386.06,394.08C393.04,376.14 403.94,360.09 417.45,346.44C428.91,335.63 442.31,326.02 456.87,319.88C478.02,310.39 502.02,307.07 525.03,309.06Z" style="fill:white;fill-rule:nonzero;"/>
    </g>
</svg>
